<svg xmlns="http://www.w3.org/2000/svg" width="125" height="125" viewBox="0 0 125 125"><rect width="100%" height="100%" fill="#DDDDDD"/><path fill="#999999" d="M30.365 67.075h2.21v1.57h-6.8v-1.57h2.49v-7.17q0-.42.02-.87l-1.77 1.48q-.15.11-.3.14-.15.03-.28.01-.13-.03-.23-.09t-.15-.14l-.67-.91 3.75-3.19h1.73v10.74Zm8.45-.39h3.16q.34 0 .54.2.2.19.2.5v1.26h-8.44v-.7q0-.21.09-.44.09-.24.29-.42l3.73-3.74q.47-.48.84-.91.37-.44.61-.86.25-.43.38-.86.13-.44.13-.93 0-.44-.12-.77-.13-.34-.36-.57-.24-.23-.57-.34-.32-.12-.73-.12-.38 0-.69.11-.32.1-.57.29-.25.2-.42.45-.17.26-.25.56-.15.39-.37.52-.23.13-.67.06l-1.1-.2q.12-.88.49-1.55.37-.66.91-1.11.55-.45 1.26-.67.71-.23 1.53-.23.85 0 1.55.25.71.25 1.21.71.5.46.78 1.11.28.64.28 1.43 0 .68-.2 1.26t-.53 1.11q-.34.52-.79 1.02-.45.49-.94 1l-2.77 2.83q.4-.12.79-.18.4-.07.75-.07Zm8.56-8.43-.43 2.56q.41-.08.78-.12.38-.04.72-.04.97 0 1.71.29t1.24.8q.51.51.76 1.19.26.69.26 1.48 0 .97-.35 1.78-.34.81-.96 1.38-.61.58-1.44.89-.84.32-1.83.32-.58 0-1.09-.12-.52-.12-.98-.32-.45-.2-.84-.46-.39-.26-.69-.55l.64-.89q.21-.29.54-.29.21 0 .43.14.22.13.51.29.28.16.67.3.39.14.93.14.58 0 1.02-.19.44-.19.74-.52.29-.34.44-.8.15-.47.15-1.01 0-1-.58-1.57-.59-.56-1.73-.56-.87 0-1.79.32l-1.31-.37 1.02-5.97h6.07v.89q0 .45-.28.73-.28.28-.95.28h-3.38Zm19.05 7.58-1.11 1.09-2.88-2.88-2.91 2.9-1.11-1.1 2.9-2.91-2.77-2.77 1.11-1.11 2.77 2.77 2.75-2.75 1.12 1.1-2.76 2.77 2.89 2.89Zm11.64 1.24h2.21v1.57h-6.8v-1.57h2.49v-7.17q0-.42.02-.87l-1.76 1.48q-.16.11-.31.14-.14.03-.28.01-.13-.03-.23-.09t-.15-.14l-.67-.91 3.75-3.19h1.73v10.74Zm8.46-.39h3.15q.34 0 .54.2.2.19.2.5v1.26h-8.43v-.7q0-.21.09-.44.09-.24.28-.42l3.73-3.74q.47-.48.84-.91.37-.44.62-.86.24-.43.37-.86.14-.44.14-.93 0-.44-.13-.77-.13-.34-.36-.57-.24-.23-.56-.34-.33-.12-.74-.12-.37 0-.69.11-.32.1-.57.29-.24.2-.41.45-.17.26-.26.56-.14.39-.37.52-.23.13-.67.06l-1.1-.2q.13-.88.49-1.55.37-.66.92-1.11.54-.45 1.25-.67.71-.23 1.53-.23.85 0 1.56.25.7.25 1.2.71.5.46.78 1.11.29.64.29 1.43 0 .68-.2 1.26t-.54 1.11q-.34.52-.79 1.02-.45.49-.94 1l-2.77 2.83q.4-.12.79-.18.4-.07.76-.07Zm8.56-8.43-.44 2.56q.41-.08.78-.12.38-.04.73-.04.97 0 1.71.29.73.29 1.24.8.5.51.75 1.19.26.69.26 1.48 0 .97-.35 1.78-.34.81-.95 1.38-.62.58-1.45.89-.84.32-1.83.32-.57 0-1.09-.12-.52-.12-.98-.32-.45-.2-.84-.46-.38-.26-.69-.55l.65-.89q.2-.29.53-.29.21 0 .44.14.22.13.5.29.29.16.67.3.39.14.93.14.58 0 1.02-.19.45-.19.74-.52.29-.34.44-.8.15-.47.15-1.01 0-1-.58-1.57-.59-.56-1.72-.56-.88 0-1.8.32l-1.31-.37 1.02-5.97h6.07v.89q0 .45-.28.73-.28.28-.95.28h-3.37Z"/></svg>